<?xml version="1.0" standalone="no"?>
<!DOCTYPE svg PUBLIC "-//W3C//DTD SVG 20010904//EN"
        "http://www.w3.org/TR/2001/REC-SVG-20010904/DTD/svg10.dtd">
<svg version="1.0" xmlns="http://www.w3.org/2000/svg"
     width="1280.000000pt" height="1280.000000pt" viewBox="0 0 1280.000000 1280.000000"
     preserveAspectRatio="xMidYMid meet">
    <metadata>
        Created by potrace 1.15, written by Peter Selinger 2001-2017
    </metadata>
    <g transform="translate(0.000000,1280.000000) scale(0.100000,-0.100000)"
       fill="#4caf50" stroke="none">
        <path d="M6495 12789 c-698 -5 -1353 -12 -1455 -15 l-185 -7 80 -27 c485 -167
892 -505 1251 -1040 160 -239 140 -203 968 -1728 213 -392 385 -716 382 -720
-2 -4 -182 -122 -400 -262 l-397 -255 278 -6 c153 -4 721 -9 1263 -13 542 -3
1073 -9 1180 -12 l195 -5 755 1247 c415 686 766 1265 779 1286 l23 40 -168
-88 c-628 -329 -749 -392 -751 -390 -5 4 -609 1120 -643 1187 -198 392 -574
684 -1025 795 -90 23 -398 24 -2130 13z"/>

        <path d="M4285 12663 c-205 -26 -428 -132 -592 -280 -51 -46 -1509 -2291
-1496 -2303 4 -5 624 -373 1377 -819 797 -472 1373 -808 1378 -803 5 5 337
544 739 1198 l729 1188 -75 142 c-491 939 -1159 1570 -1765 1669 -87 14 -222
18 -295 8z"/>
        <path d="M10179 7814 c-745 -455 -1360 -832 -1368 -839 -12 -12 89 -204 652
-1247 l666 -1233 318 0 c240 1 353 5 463 19 449 54 784 147 1095 301 186 92
316 180 437 294 247 232 374 543 355 871 -13 220 4 179 -537 1235 -54 105
-220 433 -371 730 -150 297 -291 575 -314 617 l-41 78 -1355 -826z"/>
        <path d="M1690 8598 c-575 -4 -1172 -11 -1328 -16 l-282 -7 420 -328 c231
-181 420 -333 420 -338 0 -6 -191 -376 -425 -823 -233 -447 -435 -846 -449
-887 -77 -231 -53 -479 69 -724 79 -156 171 -280 315 -425 372 -375 748 -520
1477 -570 164 -11 666 -16 681 -6 5 3 263 419 572 925 l562 919 77 -41 c42
-23 231 -125 421 -228 190 -103 346 -186 348 -184 2 2 -329 619 -735 1372
l-739 1368 -179 1 c-99 0 -650 -3 -1225 -8z"/>
        <path d="M7447 3933 l-718 -1295 268 -491 c148 -271 471 -862 718 -1314 l450
-823 6 78 c4 42 12 255 18 472 6 217 14 419 17 448 l6 53 771 -2 c683 -1 782
1 855 15 410 82 803 350 991 675 31 54 1638 3058 1695 3169 15 29 1 20 -86
-55 -388 -335 -787 -498 -1423 -579 -114 -15 -290 -18 -1462 -21 l-1333 -4 0
48 c-1 70 -48 914 -52 918 -2 2 -326 -579 -721 -1292z"/>
        <path d="M212 4980 c4 -8 416 -771 916 -1695 871 -1609 912 -1683 979 -1755
191 -206 511 -362 884 -429 295 -54 289 -53 1572 -58 l1197 -4 0 1609 0 1609
-622 7 c-343 3 -1091 9 -1663 12 -1879 11 -1799 10 -1925 28 -511 76 -927 276
-1255 603 -49 49 -86 81 -83 73z"/>
    </g>
    <g transform="scale(1.1), translate(650,100)" id="XMLID_1877_">
        <g id="Billboard">
            <path id="XMLID_1398_" style="fill:#9CA09E;" d="M270,460h-80V240h80V460z"/>
            <path id="XMLID_1397_" style="fill:#8A8E8C;" d="M370,450v10H90v-10c0-11.046,8.954-20,20-20h240C361.046,430,370,438.954,370,450
			z"/>
            <path id="XMLID_1002_" style="fill:#66646D;"
                  d="M270,250v10v30l-70.299-17.575C194,271,190,265.877,190,260v-10H270z"/>
            <path id="XMLID_1798_" style="fill:#9CA09E;" d="M450,260H10c-5.523,0-10-4.477-10-10V20c0-5.523,4.477-10,10-10h440
			c5.523,0,10,4.477,10,10v230C460,255.523,455.523,260,450,260z"/>
            <path id="XMLID_1802_" style="fill:#E0E0E0;" d="M435,240H25c-2.761,0-5-2.239-5-5V35c0-2.761,2.239-5,5-5h410
			c2.761,0,5,2.239,5,5v200C440,237.761,437.761,240,435,240z"/>
        </g>
        <g id="Lighting">
            <path id="XMLID_1800_" style="fill:#C3C9C7;" d="M380,260H80L180,20h100L380,260z"/>
            <path id="XMLID_1801_" style="fill:#F2F2F2;" d="M175.833,30h108.333l87.5,210H88.333L175.833,30z"/>
            <path id="XMLID_1799_" style="fill:#3C3B42;" d="M290,10L290,10c0,5.523-4.477,10-10,10H180c-5.523,0-10-4.477-10-10l0,0
			c0-5.523,4.477-10,10-10h100C285.523,0,290,4.477,290,10z"/>
        </g>
        <g id="Text_4_">
            <path id="XMLID_1388_" style="fill:#AAAFAD;" d="M385,105H255c-2.761,0-5-2.239-5-5l0,0c0-2.761,2.239-5,5-5h130
			c2.761,0,5,2.239,5,5l0,0C390,102.761,387.761,105,385,105z"/>
            <path id="XMLID_1389_" style="fill:#C3C9C7;"
                  d="M315.417,105H255c-2.761,0-5-2.239-5-5s2.239-5,5-5h56.25L315.417,105z"/>
            <path id="XMLID_1387_" style="fill:#AAAFAD;" d="M345,135h-50c-2.761,0-5-2.239-5-5l0,0c0-2.761,2.239-5,5-5h50
			c2.761,0,5,2.239,5,5l0,0C350,132.761,347.761,135,345,135z"/>
            <path id="XMLID_1385_" style="fill:#C3C9C7;" d="M290,130c0-2.761,2.239-5,5-5h28.75l4.167,10H295
			C292.239,135,290,132.761,290,130z"/>
            <path id="XMLID_1803_" style="fill:#93063D;" d="M355,175h-70c-2.761,0-5-2.239-5-5l0,0c0-2.761,2.239-5,5-5h70
			c2.761,0,5,2.239,5,5l0,0C360,172.761,357.761,175,355,175z"/>
            <path id="XMLID_1804_" style="fill:#AD1251;" d="M280,170c0-2.761,2.239-5,5-5h55.417l4.167,10H285
			C282.239,175,280,172.761,280,170z"/>
        </g>
        <g id="Print_5_">
            <path id="XMLID_1394_" style="fill:#93063D;" d="M190,135c0,33.137-26.863,60-60,60s-60-26.863-60-60s26.863-60,60-60
			S190,101.863,190,135z"/>
            <path id="XMLID_1392_" style="fill:#AD1251;" d="M108.709,191.099l46.13-110.712C175.576,89.833,190,110.726,190,135
			c0,33.137-26.863,60-60,60C122.5,195,115.327,193.612,108.709,191.099z"/>
            <path id="XMLID_1395_" style="fill:#E26713;" d="M166,135c0,19.882-16.118,36-36,36s-36-16.118-36-36s16.118-36,36-36
			S166,115.118,166,135z"/>
            <path id="XMLID_1391_" style="fill:#F49638;" d="M117.917,168.926l27.657-66.377c12.068,5.813,20.395,18.16,20.395,32.451
			c0,19.882-16.118,36-36,36C125.741,171,121.686,170.265,117.917,168.926z"/>
            <path id="XMLID_1396_" style="fill:#F2B92C;" d="M148,135c0,9.941-8.059,18-18,18s-18-8.059-18-18s8.059-18,18-18
			S148,125.059,148,135z"/>
            <path id="XMLID_1390_" style="fill:#FCDB70;" d="M124.853,152.254l13.764-33.034c5.567,3.061,9.342,8.978,9.342,15.78
			c0,9.941-8.059,18-18,18C128.184,153,126.473,152.733,124.853,152.254z"/>
        </g>
    </g>
    <g transform="scale(1.1), translate(50,100)" id="XMLID_1577_">
        <g id="Black_cartridge">
            <path id="XMLID_683_" style="fill:#9CA09E;" d="M210,20v20v150c0,11.046-8.547,20-19.091,20H38.182
			c-10.544,0-19.091-8.954-19.091-20v-60c0-1.326-0.503-2.598-1.398-3.536L2.796,110.858C1.006,108.982,0,106.439,0,103.787V60
			c0-11.046,8.547-20,19.091-20l0,0H20V20C20,8.954,28.954,0,40,0h150C201.046,0,210,8.954,210,20z"/>
            <path id="XMLID_1400_" style="fill:#3C3B42;"
                  d="M40,0h150c11.046,0,20,8.954,20,20v20H20V20C20,8.954,28.954,0,40,0z"/>
            <path id="XMLID_1401_" style="fill:#F2F2F2;" d="M160,170H70c-5.523,0-10-4.477-10-10V90c0-5.523,4.477-10,10-10h90
			c5.523,0,10,4.477,10,10v70C170,165.523,165.523,170,160,170z"/>
            <path id="XMLID_532_" style="fill:#3C3B42;" d="M160,125v30c0,2.761-2.239,5-5,5H75c-2.761,0-5-2.239-5-5v-30c0-2.761,2.239-5,5-5
			h80C157.761,120,160,122.239,160,125z"/>
            <path id="XMLID_533_" style="fill:#D2D6D5;" d="M160,95L160,95c0,2.761-2.239,5-5,5h-40c-2.761,0-5-2.239-5-5l0,0
			c0-2.761,2.239-5,5-5h40C157.761,90,160,92.239,160,95z"/>
            <path id="XMLID_531_" style="fill:#3C3B42;" d="M90,100c0,5.523-4.477,10-10,10s-10-4.477-10-10s4.477-10,10-10S90,94.477,90,100z
			"/>
        </g>
        <g id="Yellow_cartridge">
            <path id="XMLID_1418_" style="fill:#9CA09E;" d="M460,270v20v150c0,11.046-8.547,20-19.091,20H288.182
			c-10.544,0-19.091-8.954-19.091-20v-60c0-1.326-0.503-2.598-1.398-3.536l-14.897-15.607c-1.79-1.875-2.796-4.419-2.796-7.071V310
			c0-11.046,8.547-20,19.091-20l0,0H270v-20c0-11.046,8.954-20,20-20h150C451.046,250,460,258.954,460,270z"/>
            <path id="XMLID_1419_" style="fill:#F7C843;" d="M290,250h150c11.046,0,20,8.954,20,20v20H270v-20
			C270,258.954,278.954,250,290,250z"/>
            <path id="XMLID_1424_" style="fill:#F2F2F2;" d="M410,420h-90c-5.523,0-10-4.477-10-10v-70c0-5.523,4.477-10,10-10h90
			c5.523,0,10,4.477,10,10v70C420,415.523,415.523,420,410,420z"/>
            <path id="XMLID_1426_" style="fill:#F7C843;" d="M410,375v30c0,2.761-2.239,5-5,5h-80c-2.761,0-5-2.239-5-5v-30
			c0-2.761,2.239-5,5-5h80C407.761,370,410,372.239,410,375z"/>
            <path id="XMLID_1425_" style="fill:#D2D6D5;" d="M410,345L410,345c0,2.761-2.239,5-5,5h-40c-2.761,0-5-2.239-5-5l0,0
			c0-2.761,2.239-5,5-5h40C407.761,340,410,342.239,410,345z"/>
            <path id="XMLID_1420_" style="fill:#F7C843;" d="M340,350c0,5.523-4.477,10-10,10s-10-4.477-10-10s4.477-10,10-10
			S340,344.477,340,350z"/>
        </g>
        <g id="Magenta_cartridge">
            <path id="XMLID_738_" style="fill:#9CA09E;" d="M210,270v20v150c0,11.046-8.547,20-19.091,20H38.182
			c-10.544,0-19.091-8.954-19.091-20v-60c0-1.326-0.503-2.598-1.398-3.536L2.796,360.858C1.006,358.982,0,356.439,0,353.787V310
			c0-11.046,8.547-20,19.091-20l0,0H20v-20c0-11.046,8.954-20,20-20h150C201.046,250,210,258.954,210,270z"/>
            <path id="XMLID_714_" style="fill:#E2396D;"
                  d="M40,250h150c11.046,0,20,8.954,20,20v20H20v-20C20,258.954,28.954,250,40,250z"/>
            <path id="XMLID_1417_" style="fill:#F2F2F2;" d="M160,420H70c-5.523,0-10-4.477-10-10v-70c0-5.523,4.477-10,10-10h90
			c5.523,0,10,4.477,10,10v70C170,415.523,165.523,420,160,420z"/>
            <path id="XMLID_1402_" style="fill:#E2396D;" d="M160,375v30c0,2.761-2.239,5-5,5H75c-2.761,0-5-2.239-5-5v-30
			c0-2.761,2.239-5,5-5h80C157.761,370,160,372.239,160,375z"/>
            <path id="XMLID_717_" style="fill:#D2D6D5;" d="M160,345L160,345c0,2.761-2.239,5-5,5h-40c-2.761,0-5-2.239-5-5l0,0
			c0-2.761,2.239-5,5-5h40C157.761,340,160,342.239,160,345z"/>
            <path id="XMLID_718_" style="fill:#E2396D;" d="M90,350c0,5.523-4.477,10-10,10s-10-4.477-10-10s4.477-10,10-10S90,344.477,90,350
			z"/>
        </g>
        <g id="Cyan_cartridge">
            <path id="XMLID_716_" style="fill:#9CA09E;" d="M460,20v20v150c0,11.046-8.547,20-19.091,20H288.182
			c-10.544,0-19.091-8.954-19.091-20v-60c0-1.326-0.503-2.598-1.398-3.536l-14.897-15.607c-1.79-1.875-2.796-4.419-2.796-7.071V60
			c0-11.046,8.547-20,19.091-20l0,0H270V20c0-11.046,8.954-20,20-20h150C451.046,0,460,8.954,460,20z"/>
            <path id="XMLID_534_" style="fill:#7FA3BA;"
                  d="M290,0h150c11.046,0,20,8.954,20,20v20H270V20C270,8.954,278.954,0,290,0z"/>
            <path id="XMLID_713_" style="fill:#F2F2F2;" d="M410,170h-90c-5.523,0-10-4.477-10-10V90c0-5.523,4.477-10,10-10h90
			c5.523,0,10,4.477,10,10v70C420,165.523,415.523,170,410,170z"/>
            <path id="XMLID_677_" style="fill:#7FA3BA;" d="M410,125v30c0,2.761-2.239,5-5,5h-80c-2.761,0-5-2.239-5-5v-30
			c0-2.761,2.239-5,5-5h80C407.761,120,410,122.239,410,125z"/>
            <path id="XMLID_712_" style="fill:#D2D6D5;" d="M410,95L410,95c0,2.761-2.239,5-5,5h-40c-2.761,0-5-2.239-5-5l0,0
			c0-2.761,2.239-5,5-5h40C407.761,90,410,92.239,410,95z"/>
            <path id="XMLID_536_" style="fill:#7FA3BA;" d="M340,100c0,5.523-4.477,10-10,10s-10-4.477-10-10s4.477-10,10-10
			S340,94.477,340,100z"/>
        </g>
    </g>
    <g transform="scale(1.2), translate(300,600)" id="XMLID_978_">
        <g id="Printer_1_">
            <path id="XMLID_1663_" style="fill:#9CA09E;" d="M460,210v80v80c0,22.091-17.909,40-40,40H40c-22.091,0-40-17.909-40-40v-80v-80
			c0-22.091,17.909-40,40-40h380C442.091,170,460,187.909,460,210z"/>
            <path id="XMLID_238_" style="fill:#D2D6D5;" d="M460,210v80H0v-80c0-22.091,17.909-40,40-40h380C442.091,170,460,187.909,460,210z
			"/>
            <path id="XMLID_1464_" style="fill:#3C3B42;" d="M380,240H80c-11.046,0-20-8.954-20-20v-50h340v50
			C400,231.046,391.046,240,380,240z"/>
            <path id="XMLID_1463_" style="fill:#66646D;" d="M380,145v65c0,5.523-4.477,10-10,10H90c-5.523,0-10-4.477-10-10v-65
			c0-2.761,2.239-5,5-5h290C377.761,140,380,142.239,380,145z"/>
            <path id="XMLID_1471_" style="fill:#3C3B42;" d="M400,360v50H60v-50c0-11.046,8.954-20,20-20h300C391.046,340,400,348.954,400,360
			z"/>
            <path id="XMLID_1477_" style="fill:#66646D;" d="M375,440H85c-2.761,0-5-2.239-5-5v-65c0-5.523,4.477-10,10-10h280
			c5.523,0,10,4.477,10,10v65C380,437.761,377.761,440,375,440z"/>
        </g>
        <g id="Control_panel_2_">
            <path id="XMLID_1468_" style="fill:#C8DD7F;" d="M410,310L410,310c0-5.523,4.477-10,10-10l0,0c5.523,0,10,4.477,10,10l0,0
			c0,5.523-4.477,10-10,10l0,0C414.477,320,410,315.523,410,310z"/>
            <path id="XMLID_1469_" style="fill:#C8DD7F;" d="M370,310L370,310c0-5.523,4.477-10,10-10l0,0c5.523,0,10,4.477,10,10l0,0
			c0,5.523-4.477,10-10,10l0,0C374.477,320,370,315.523,370,310z"/>
            <path id="XMLID_1466_" style="fill:#9CA09E;" d="M410,270L410,270c0-5.523,4.477-10,10-10l0,0c5.523,0,10,4.477,10,10l0,0
			c0,5.523-4.477,10-10,10l0,0C414.477,280,410,275.523,410,270z"/>
        </g>
        <g id="Sheet_bottom_1_">
            <path id="XMLID_1476_" style="fill:#E0E0E0;"
                  d="M370,455c0,2.761-2.239,5-5,5H95c-2.761,0-5-2.239-5-5v-95h280V455z"/>
            <path id="XMLID_1475_" style="fill:#C3C9C7;" d="M370,380H90v-20h280V380z"/>
        </g>
        <g id="Sheet_top_1_">
            <path id="XMLID_1248_" style="fill:#F2F2F2;" d="M90,220V28c0-15.464,12.536-28,28-28h186.907c4.641,0,9.092,1.844,12.374,5.126
			l47.593,47.593C368.156,56,370,60.452,370,65.093V220H90z"/>
            <path id="XMLID_236_" style="fill:#E0E0E0;" d="M314,84h56v136H90V28c0-15.464,12.536-28,28-28h168v56
			C286,71.464,298.536,84,314,84z"/>
            <path id="XMLID_2344_" style="fill:#AAAFAD;"
                  d="M314,84h56v21l-49.209-12.302C316.8,91.7,314,88.114,314,84z"/>
            <g id="Cloud_sign">
                <path id="XMLID_1457_" style="fill:#73A09C;" d="M170.537,104.319h118.927c20.899,0,37.84,16.942,37.84,37.84l0,0
				c0,20.899-16.942,37.84-37.84,37.84H170.537c-20.899,0-37.84-16.942-37.84-37.84l0,0
				C132.696,121.261,149.638,104.319,170.537,104.319z"/>
                <path id="XMLID_1458_" style="fill:#90BFBB;" d="M154.319,101.704c0-19.406,15.732-35.137,35.137-35.137
				s35.137,15.732,35.137,35.137s-15.732,35.137-35.137,35.137S154.319,121.109,154.319,101.704z"/>
                <path id="XMLID_1461_" style="fill:#B4DBD5;" d="M187.975,144.863c0-19.406,15.732-35.137,35.137-35.137
				s35.137,15.732,35.137,35.137S242.518,180,223.112,180S187.975,164.268,187.975,144.863z"/>
                <path id="XMLID_1460_" style="fill:#B4DBD5;" d="M186.754,101.704c0-32.841,26.623-59.463,59.463-59.463
				s59.463,26.623,59.463,59.463s-26.623,59.463-59.463,59.463S186.754,134.544,186.754,101.704z"/>
            </g>
            <path id="XMLID_493_" style="fill:#F2F2F2;" d="M317.281,5.126l47.593,47.593C368.156,56,370,60.452,370,65.093V84h-56
			c-15.464,0-28-12.536-28-28V0h18.907C309.548,0,314,1.844,317.281,5.126z"/>
        </g>
    </g>
</svg>
